<?xml version="1.0" encoding="UTF-8" standalone="no"?>
<svg
   xmlns:dc="http://purl.org/dc/elements/1.1/"
   xmlns:cc="http://creativecommons.org/ns#"
   xmlns:rdf="http://www.w3.org/1999/02/22-rdf-syntax-ns#"
   xmlns:svg="http://www.w3.org/2000/svg"
   xmlns="http://www.w3.org/2000/svg"
   id="Layer_1"
   data-name="Layer 1"
   viewBox="0 0 610 320"
   version="1.1"
   width="610"
   height="320">
  <metadata
     id="metadata37">
    <rdf:RDF>
      <cc:Work
         rdf:about="">
        <dc:format>image/svg+xml</dc:format>
        <dc:type
           rdf:resource="http://purl.org/dc/dcmitype/StillImage" />
        <dc:title>Wandgestaltung Reinl - W</dc:title>
      </cc:Work>
    </rdf:RDF>
  </metadata>
  <defs
     id="defs12">
    <rect
       x="31.160349"
       y="505.33957"
       width="551.40271"
       height="55.546711"
       id="rect58" />
    <rect
       x="35.224743"
       y="509.40396"
       width="547.33832"
       height="41.998734"
       id="rect52" />
    <style
       id="style10">.cls-1{font-size:54.33px;font-family:FiraSans-Medium, Fira Sans;}.cls-1,.cls-3{fill:#414042;}.cls-2{font-family:FiraSans-Regular, Fira Sans;}.cls-4{fill:#d5222c;}.cls-5{fill:#ffcb05;}.cls-6{fill:#0074bc;fill-rule:evenodd;}</style>
  </defs>
  <title
     id="title14">Wandgestaltung Reinl - W</title>
  <text
     class="cls-1"
     id="text20"
     x="138.2357"
     y="268.19901"
     style="font-size:26.2194px;fill:#454545;fill-opacity:1;stroke-width:0.602284"
     transform="scale(1.0163661,0.98389744)"><tspan
       style="font-style:normal;font-variant:normal;font-weight:bold;font-stretch:normal;font-size:26.2194px;font-family:Verdana;-inkscape-font-specification:'Verdana Bold';fill:#454545;fill-opacity:1;stroke-width:0.602284"
       id="tspan47">Wandgestaltung Reinl</tspan></text>
  <path
     class="cls-4"
     d="m 382.26952,74.996646 h 11.52663 c 5.91329,0.272584 10.45538,5.196978 10.45538,10.927287 V 223.92543 a 11.018549,10.666553 0 0 0 11.01855,10.66655 h 43.95789 a 11.018549,10.666553 0 0 0 11.01855,-10.66655 V 170.72896 A 76.566675,74.120692 0 0 0 456.44884,128.17533 76.566675,74.120692 0 0 0 470.24652,85.621717 77.539981,75.062905 0 0 0 469.44461,74.88405 76.750317,74.298468 0 0 0 404.3862,11.933609 77.558345,75.080682 0 0 0 393.25747,11.157325 h -21.97589"
     id="path28"
     style="stroke-width:0.602284" />
  <path
     class="cls-5"
     d="m 294.35374,160.09203 a 11.018549,10.666553 0 0 0 11.5205,10.62507 c 5.9133,-0.26666 10.45539,-5.19697 10.45539,-10.92728 V 21.794251 a 11.018549,10.666553 0 0 1 11.01854,-10.666558 h 43.9579 a 11.018549,10.666553 0 0 1 11.01854,10.666558 V 160.09203 a 77.546102,75.06883 0 0 1 -0.78353,10.66656 76.768682,74.316245 0 0 1 -65.14412,63.0334 77.344095,74.873277 0 0 1 -22.0371,0 76.480975,74.03773 0 0 1 -32.96382,-12.59246 76.836017,74.38143 0 0 0 32.9577,-61.1075 z"
     id="path30"
     style="stroke-width:0.602284" />
  <path
     class="cls-6"
     d="M 283.3658,11.186948 H 239.40791 A 11.018549,10.666553 0 0 0 228.38936,21.853506 V 160.09203 a 11.018549,10.666553 0 0 1 -11.50214,10.62507 c -5.91329,-0.26666 -10.45538,-5.19697 -10.45538,-10.92728 V 21.794251 A 11.018549,10.666553 0 0 0 195.41329,11.127693 h -43.92117 a 11.018549,10.666553 0 0 0 -11.01854,10.666558 v 138.297779 0 a 76.836017,74.38143 0 0 0 32.96382,61.11343 v 0 a 76.517704,74.073285 0 0 0 32.96995,12.59246 76.903353,74.446615 0 0 0 87.94639,-73.70589 V 21.794251 A 11.018549,10.666553 0 0 0 283.3658,11.186948 Z"
     id="path32"
     style="stroke-width:0.602284" />
  <text
     xml:space="preserve"
     id="text50"
     style="font-style:normal;font-weight:normal;font-size:40px;line-height:1.25;font-family:sans-serif;white-space:pre;shape-inside:url(#rect52);fill:#000000;fill-opacity:1;stroke:none;" />
  <text
     xml:space="preserve"
     id="text56"
     style="font-style:normal;font-weight:normal;font-size:33.33330000000000126px;line-height:1.25;font-family:sans-serif;white-space:pre;shape-inside:url(#rect58);fill:#454545;fill-opacity:1;stroke:none;"
     transform="matrix(0.61214163,0,0,0.59258628,120.88503,-24.649891)"><tspan
       x="31.160156"
       y="535.75083"><tspan
         style="font-size:33.3333px;fill:#454545;fill-opacity:1">Werte schaffen - Werte erhalten</tspan></tspan></text>
</svg>
