<?xml version="1.0" encoding="UTF-8" standalone="no"?>
<svg
   xmlns:dc="http://purl.org/dc/elements/1.1/"
   xmlns:cc="http://creativecommons.org/ns#"
   xmlns:rdf="http://www.w3.org/1999/02/22-rdf-syntax-ns#"
   xmlns:svg="http://www.w3.org/2000/svg"
   xmlns="http://www.w3.org/2000/svg"
   width="142.00685mm"
   height="99.774376mm"
   viewBox="0 0 142.00685 99.774376"
   version="1.1"
   id="svg137">
  <defs
     id="defs131" />
  <metadata
     id="metadata134">
    <rdf:RDF>
      <cc:Work
         rdf:about="">
        <dc:format>image/svg+xml</dc:format>
        <dc:type
           rdf:resource="http://purl.org/dc/dcmitype/StillImage" />
        <dc:title></dc:title>
      </cc:Work>
    </rdf:RDF>
  </metadata>
  <g
     id="layer1"
     transform="translate(-0.2070795,-0.23245556)">
    <path
       class="cls-4"
       d="m 104.18799,28.74925 h 4.9821 c 2.55588,0.121708 4.51909,2.320395 4.51909,4.878916 v 61.616171 a 4.7625,4.7625 0 0 0 4.7625,4.762493 h 18.99972 a 4.7625,4.7625 0 0 0 4.7625,-4.762493 v -23.75165 a 33.094083,33.094083 0 0 0 -5.9637,-18.999729 33.094083,33.094083 0 0 0 5.9637,-18.999729 33.514771,33.514771 0 0 0 -0.3466,-4.79425 33.173458,33.173458 0 0 0 -28.11992,-28.10669017 33.522708,33.522708 0 0 0 -4.81012,-0.34660417 h -9.498534"
       id="path109"
       style="fill:#d5222c;stroke-width:0.264583" />
    <path
       class="cls-5"
       d="m 66.717889,66.743416 a 4.7625,4.7625 0 0 0 4.979433,4.743979 C 74.253177,71.368333 76.216375,69.167 76.216375,66.608479 V 4.994956 A 4.7625,4.7625 0 0 1 80.978848,0.23245556 H 99.978473 A 4.7625,4.7625 0 0 1 104.74097,4.994956 v 61.74846 a 33.517417,33.517417 0 0 1 -0.33867,4.7625 33.181396,33.181396 0 0 1 -28.156825,28.143727 33.430104,33.430104 0 0 1 -9.524946,0 A 33.057042,33.057042 0 0 1 52.4728,94.02725 33.2105,33.2105 0 0 0 66.717889,66.743416 Z"
       id="path111"
       style="fill:#ffcb05;stroke-width:0.264583" />
    <path
       class="cls-6"
       d="M 61.968646,0.25891386 H 42.969024 A 4.7625,4.7625 0 0 0 38.20654,5.021414 v 61.722002 a 4.7625,4.7625 0 0 1 -4.971521,4.743979 C 30.679144,71.368333 28.715936,69.167 28.715936,66.608479 V 4.994956 A 4.7625,4.7625 0 0 0 23.953435,0.23245556 H 4.969584 A 4.7625,4.7625 0 0 0 0.20708676,4.994956 v 61.74846 0 A 33.2105,33.2105 0 0 0 14.454894,94.029895 v 0 A 33.072917,33.072917 0 0 0 28.705353,99.652293 33.239604,33.239604 0 0 0 66.717889,66.743416 V 4.994956 A 4.7625,4.7625 0 0 0 61.968646,0.25891386 Z"
       id="path113"
       style="fill:#0074bc;fill-rule:evenodd;stroke-width:0.264583" />
  </g>
</svg>
