<?xml version="1.0" encoding="UTF-8" standalone="no"?>
<svg
   xmlns:dc="http://purl.org/dc/elements/1.1/"
   xmlns:cc="http://creativecommons.org/ns#"
   xmlns:rdf="http://www.w3.org/1999/02/22-rdf-syntax-ns#"
   xmlns:svg="http://www.w3.org/2000/svg"
   xmlns="http://www.w3.org/2000/svg"
   width="712"
   height="120"
   viewBox="0 0 711.99998 120"
   version="1.1"
   id="SVGRoot">
  <defs
     id="defs18">
    <rect
       x="213"
       y="69"
       width="509"
       height="48"
       id="rect26" />
    <rect
       x="210"
       y="7"
       width="526"
       height="106"
       id="rect91" />
    <rect
       x="210"
       y="7"
       width="526"
       height="106"
       id="rect91-9" />
    <rect
       x="210"
       y="7"
       width="526"
       height="106"
       id="rect862" />
  </defs>
  <metadata
     id="metadata21">
    <rdf:RDF>
      <cc:Work
         rdf:about="">
        <dc:format>image/svg+xml</dc:format>
        <dc:type
           rdf:resource="http://purl.org/dc/dcmitype/StillImage" />
        <dc:title></dc:title>
      </cc:Work>
    </rdf:RDF>
  </metadata>
  <g
     id="layer1">
    <path
       class="cls-4"
       d="m 124.91201,34.281623 h 5.99205 c 3.07398,0.14638 5.43516,2.790771 5.43516,5.867939 v 74.106608 a 5.7279236,5.7279236 0 0 0 5.72792,5.72792 h 22.85124 a 5.7279236,5.7279236 0 0 0 5.72792,-5.72792 V 85.689737 A 39.802705,39.802705 0 0 0 163.47367,62.838504 39.802705,39.802705 0 0 0 170.6463,39.987271 40.308671,40.308671 0 0 0 170.22944,34.221161 39.89817,39.89817 0 0 0 136.40923,0.41686507 40.318218,40.318218 0 0 0 130.62403,7.1630845e-8 H 119.2"
       id="path49"
       style="fill:#d5222c;stroke-width:0.318218" />
    <path
       class="cls-5"
       d="m 79.632856,79.993636 a 5.7279236,5.7279236 0 0 0 5.988864,5.705648 c 3.07399,-0.143198 5.43516,-2.790772 5.43516,-5.86794 V 5.727924 A 5.7279236,5.7279236 0 0 1 96.78481,0 h 22.85123 a 5.7279236,5.7279236 0 0 1 5.72792,5.727924 v 74.265712 a 40.311854,40.311854 0 0 1 -0.40732,5.727923 39.907717,39.907717 0 0 1 -33.86475,33.848851 40.206842,40.206842 0 0 1 -11.455852,0 A 39.758154,39.758154 0 0 1 62.5,112.80827 39.942721,39.942721 0 0 0 79.632856,79.993636 Z"
       id="path51"
       style="fill:#ffcb05;stroke-width:0.318218" />
    <path
       class="cls-6"
       d="M 74.281632,0.031822 H 51.430399 a 5.7279236,5.7279236 0 0 0 -5.727924,5.727923 v 74.233891 a 5.7279236,5.7279236 0 0 1 -5.979315,5.705648 c -3.073986,-0.143198 -5.435163,-2.790772 -5.435163,-5.86794 V 5.727924 A 5.7279236,5.7279236 0 0 0 28.560073,0 H 5.7279327 A 5.7279236,5.7279236 0 0 0 8.7337498e-6,5.727924 v 74.265712 0 A 39.942721,39.942721 0 0 0 17.136047,112.81146 v 0 a 39.777247,39.777247 0 0 0 17.139221,6.76213 39.977725,39.977725 0 0 0 45.718377,-39.579954 V 5.727924 A 5.7279236,5.7279236 0 0 0 74.281632,0.031822 Z"
       id="path53"
       style="fill:#0074bc;fill-rule:evenodd;stroke-width:0.318218" />
    <text
       xml:space="preserve"
       id="text89"
       style="font-style:normal;font-variant:normal;font-weight:600;font-stretch:normal;font-size:50.66669999999999874px;line-height:1.25;font-family:'Fira Sans';-inkscape-font-specification:'Fira Sans Semi-Bold';white-space:pre;shape-inside:url(#rect91);fill:#454545;fill-opacity:1;stroke:none;"
       transform="matrix(1.0560848,0,0,1.0560848,-40.473416,7.044147)"><tspan
         x="210"
         y="52.81114"><tspan
           style="font-style:normal;font-variant:normal;font-weight:600;font-stretch:normal;font-size:50.6667px;font-family:'Fira Sans';-inkscape-font-specification:'Fira Sans Semi-Bold';fill:#454545;fill-opacity:1">Wandgestaltung Reinl</tspan></tspan></text>
    <text
       xml:space="preserve"
       id="text89-5"
       style="font-style:normal;font-variant:normal;font-weight:500;font-stretch:normal;font-size:29.33689999999999998px;line-height:1.25;font-family:'Fira Sans';-inkscape-font-specification:'Fira Sans Medium';white-space:pre;shape-inside:url(#rect91-9);fill:#454545;fill-opacity:1;stroke:none;"
       transform="matrix(1.2537144,0,0,1.2537144,-81.905286,65.987635)"><tspan
         x="210"
         y="33.525448"><tspan
           style="font-style:normal;font-variant:normal;font-weight:500;font-stretch:normal;font-size:29.3369px;font-family:'Fira Sans';-inkscape-font-specification:'Fira Sans Medium'">Werte schaffen - Werte erhalten</tspan></tspan></text>
  </g>
</svg>
